<?xml version="1.0" encoding="utf-8"?>
<!-- Generator: Adobe Illustrator 26.5.0, SVG Export Plug-In . SVG Version: 6.00 Build 0)  -->
<svg version="1.1" xmlns="http://www.w3.org/2000/svg" xmlns:xlink="http://www.w3.org/1999/xlink" x="0px" y="0px"
	 viewBox="0 0 1147 269.34" style="enable-background:new 0 0 1147 269.34;" xml:space="preserve">
<style type="text/css">
	.st0{fill:#EF1414;}
	.st1{fill:#FFFFFF;}
</style>
<g id="Layer_2">
	<ellipse class="st0" cx="780.56" cy="131.76" rx="78.76" ry="92.82"/>
</g>
<g id="Layer_1">
	<g>
		<g>
			<path class="st1" d="M5.94,6.27h96.24c72.7,0,132.59,57.12,132.59,130.52S174.54,267.3,102.18,267.3H5.94V6.27z M73.79,209.83
				h15.23c40.51,0,75.12-22.16,75.12-73.04c0-46.74-30.81-73.04-74.43-73.04H73.79V209.83z"/>
			<path class="st1" d="M291.17,221.94l-18,45.35h-72.01L301.56,6.27h74.09l98.32,261.03h-72.35l-16.96-45.35H291.17z M338.6,86.93
				h-0.69l-28.04,83.09h56.43L338.6,86.93z"/>
			<path class="st1" d="M436.89,6.27h83.43l39.81,67.51l39.81-67.51h83.43l-83.43,121.52l96.59,139.51h-81.7l-54.7-85.16
				l-59.89,85.16H418.2l102.12-139.51L436.89,6.27z"/>
			<path class="st1" d="M1139.95,267.3h-84.47l-64.05-100.4h-0.69v100.4h-67.85V6.27h101.44c51.58,0,90.7,24.58,90.7,80.32
				c0,36-20.08,67.16-57.12,73.74L1139.95,267.3z M990.74,123.28h6.58c22.16,0,47.08-4.16,47.08-32.54s-24.93-32.54-47.08-32.54
				h-6.58V123.28z"/>
		</g>
	</g>
	<path class="st1" d="M803.26,2.14c-93.35-16.35-173.24,63.54-156.89,156.88c9.61,54.87,53.31,98.57,108.18,108.18
		c93.35,16.35,173.24-63.54,156.89-156.88C901.83,55.45,858.13,11.75,803.26,2.14z M778.57,211.69c-30.55,0-55.31-26.03-55.31-58.13
		c0-19.44,9.09-36.64,23.04-47.19c6.17-4.79,11.85-8.73,16.84-15.18c10.63-13.75,15.28-32.81,16.7-48.95
		c1.36,16.27,5.52,35.38,16.28,49.12l17.39,17.16c12.43,10.66,20.37,26.87,20.37,45.04C833.88,185.67,809.11,211.69,778.57,211.69z"
		/>
</g>
</svg>
